<svg xmlns="http://www.w3.org/2000/svg" xmlns:xlink="http://www.w3.org/1999/xlink" version="1.1" x="0px" y="0px" viewBox="0 0 100 125" enable-background="new 0 0 100 100" xml:space="preserve"><path d="M50,1.833C23.44,1.833,1.833,23.44,1.833,50S23.44,98.167,50,98.167S98.167,76.56,98.167,50S76.56,1.833,50,1.833z   M50,96.167C24.543,96.167,3.833,75.457,3.833,50C3.833,24.543,24.543,3.833,50,3.833c25.457,0,46.167,20.71,46.167,46.167  C96.167,75.457,75.457,96.167,50,96.167z"/><path d="M50,37.208c-7.054,0-12.792,5.738-12.792,12.792S42.946,62.792,50,62.792S62.792,57.054,62.792,50S57.054,37.208,50,37.208z   M50,60.792c-5.951,0-10.792-4.841-10.792-10.792c0-5.951,4.841-10.792,10.792-10.792c5.951,0,10.792,4.841,10.792,10.792  C60.792,55.951,55.951,60.792,50,60.792z"/><path d="M58.147,26.609l-0.619,1.902c5.734,1.865,10.649,5.999,13.484,11.341l1.768-0.938  C69.658,33.034,64.462,28.664,58.147,26.609z"/><path d="M53.491,15.531l-0.18,1.992c12.92,1.169,24.093,9.83,28.466,22.064l1.883-0.673C79.026,25.949,67.185,16.771,53.491,15.531z  "/><path d="M41.853,73.39l0.618-1.902c-5.733-1.864-10.648-5.998-13.485-11.34l-1.767,0.938C30.342,66.967,35.54,71.336,41.853,73.39z"/><path d="M18.223,60.413l-1.884,0.674c4.633,12.963,16.475,22.141,30.169,23.382l0.181-1.992  C33.768,81.307,22.595,72.646,18.223,60.413z"/><text x="0" y="115" fill="#000000" font-size="5px" font-weight="bold" font-family="'Helvetica Neue', Helvetica, Arial-Unicode, Arial, Sans-serif">Created by Srinivas Agra</text><text x="0" y="120" fill="#000000" font-size="5px" font-weight="bold" font-family="'Helvetica Neue', Helvetica, Arial-Unicode, Arial, Sans-serif">from the Noun Project</text></svg>